# xmcd
# 
# Track frame offsets:
#     187
#     17642
#     29912
#     47109
#     65314
#     72937
#     87474
#     121357
#     135417
# 
# Disc length: 2131
# 
# Revision: 5
# Processed by: cddbd v1.5.2PL0 Copyright (c) Steve Scherf et al.
# Submitted via: fre:ac v1.0.31
# 
DISCID=7d085109
DTITLE=Marvin Gaye - What's Going On
DYEAR=1971
DGENRE=R&B
TTITLE0=What's Going On
TTITLE1=What's Happening Brother
TTITLE2=Flyin' High (In the Friendly Sky)
TTITLE3=Save the Children
TTITLE4=God Is Love
TTITLE5=Mercy Mercy Me (The Ecology)
TTITLE6=Right On
TTITLE7=Wholy Holy
TTITLE8=Inner City Blues (Make Me Wanna Holler)
EXTD=YEAR: 1971
EXTT0=
EXTT1=
EXTT2=
EXTT3=
EXTT4=
EXTT5=
EXTT6=
EXTT7=
EXTT8=
PLAYORDER=
